<?xml version="1.0" encoding="iso-8859-1"?>
<!-- Generator: Adobe Illustrator 19.0.0, SVG Export Plug-In . SVG Version: 6.00 Build 0)  -->
<!-- License: CC0. Made by SVG Repo: https://www.svgrepo.com/svg/138821/justice -->
<svg version="1.1" id="Capa_1" xmlns="http://www.w3.org/2000/svg" xmlns:xlink="http://www.w3.org/1999/xlink" x="0px" y="0px"
	 viewBox="0 0 59.88 59.88" style="enable-background:new 0 0 59.88 59.88;" xml:space="preserve">
<g>
	<g>
		<path d="M59.213,28.329L41.508,14.9c-0.565-0.504-1.425-0.505-1.993-0.004l-9.575,7.113l-9.575-7.113
			c-0.567-0.502-1.428-0.5-1.993,0.004L0.771,28.239l-0.103,0.09C0.237,28.759,0,29.331,0,29.94s0.237,1.181,0.667,1.611
			L18.372,44.98c0.284,0.253,0.642,0.379,0.999,0.379c0.355,0,0.711-0.125,0.994-0.375l9.575-7.113l9.574,7.112
			c0.283,0.25,0.639,0.375,0.995,0.375c0.357,0,0.715-0.126,0.999-0.379L59.11,31.64l0.103-0.09c0.43-0.43,0.667-1.002,0.667-1.611
			S59.644,28.759,59.213,28.329z M19.374,43.229L2.053,30.103c-0.071-0.097-0.071-0.23,0-0.327L19.374,16.65l8.89,6.604l-1.63,1.211
			l-6.38-4.018c-0.517-0.42-1.265-0.417-1.777,0.01l-12.62,8.367L5.703,28.95c-0.265,0.264-0.41,0.616-0.41,0.99
			s0.146,0.726,0.41,0.99l12.774,8.493c0.258,0.215,0.576,0.322,0.895,0.322c0.313,0,0.626-0.104,0.882-0.313l6.38-4.018l1.63,1.211
			L19.374,43.229z M24.912,34.135l-5.534,3.485L7.793,29.94l11.585-7.681l5.533,3.485l-3.971,2.95v2.491L24.912,34.135z
			 M29.94,35.38l-1.492-1.109h0.001l-5.831-4.331l7.322-5.44l1.492,1.108l0,0l0.564,0.419l5.267,3.913l-5.83,4.331l0,0L29.94,35.38z
			 M34.97,25.744l5.533-3.485l11.585,7.681l-11.585,7.681l-5.533-3.485l3.971-2.95v-2.493L34.97,25.744z M57.828,30.103
			L40.506,43.229l-8.889-6.604l1.63-1.211l6.379,4.018c0.256,0.208,0.569,0.313,0.882,0.313c0.318,0,0.636-0.107,0.895-0.322
			l12.62-8.367l0.154-0.126c0.265-0.264,0.41-0.616,0.41-0.99s-0.146-0.726-0.41-0.99l-12.774-8.493
			c-0.512-0.426-1.26-0.43-1.777-0.01l-6.38,4.018l-1.63-1.211l8.89-6.604l17.321,13.126C57.898,29.873,57.898,30.006,57.828,30.103
			z"/>
	</g>
</g>
</svg>
